<svg xmlns="http://www.w3.org/2000/svg" xmlns:xlink="http://www.w3.org/1999/xlink" version="1.1" width="512" height="512" x="0" y="0" viewBox="0 0 58 58" style="enable-background:new 0 0 512 512" xml:space="preserve" class="svg_img pro_svg" src="assets/img/icons/product.svg" alt=""><g><g xmlns="http://www.w3.org/2000/svg" id="Page-1" fill="none" fill-rule="evenodd"><g id="018---Add-Basket" fill-rule="nonzero"><path id="Shape" d="m43.83 22h12.17c1.1032019.0032948 1.9967052.8967981 2 2v4c-.0032948 1.1032019-.8967981 1.9967052-2 2h-54c-1.10320187-.0032948-1.9967052-.8967981-2-2v-4c.0032948-1.1032019.89679813-1.9967052 2-2z" fill="#f0c419" data-original="#f0c419"></path><g fill="#f29c1f"><path id="Shape" d="m36.75 30h18.25l-4.26 23.88c-.430155 2.3851969-2.5063256 4.1202522-4.93 4.12h-33.62c-2.42367437.0002522-4.49984499-1.7348031-4.93-4.12l-4.26-23.88z" fill="#fdedad" data-original="#f29c1f" class=""></path><circle id="Oval" cx="6" cy="26" r="1" fill="#fdedad" data-original="#f29c1f" class=""></circle><circle id="Oval" cx="12" cy="26" r="1" fill="#fdedad" data-original="#f29c1f" class=""></circle><circle id="Oval" cx="46" cy="26" r="1" fill="#fdedad" data-original="#f29c1f" class=""></circle><circle id="Oval" cx="52" cy="26" r="1" fill="#fdedad" data-original="#f29c1f" class=""></circle></g><rect id="Rectangle-path" fill="#d25627" height="18" rx="2" width="4" x="27" y="35" data-original="#d25627"></rect><rect id="Rectangle-path" fill="#d25627" height="18" rx="2" width="4" x="39" y="35" data-original="#d25627"></rect><rect id="Rectangle-path" fill="#d25627" height="18" rx="2" width="4" x="15" y="35" data-original="#d25627"></rect><circle id="Oval" cx="29" cy="16" fill="#4fba6f" r="16" data-original="#4fba6f"></circle><path id="Shape" d="m37 14h-6v-6c0-1.1045695-.8954305-2-2-2s-2 .8954305-2 2v6h-6c-1.1045695 0-2 .8954305-2 2s.8954305 2 2 2h6v6c0 1.1045695.8954305 2 2 2s2-.8954305 2-2v-6h6c1.1045695 0 2-.8954305 2-2s-.8954305-2-2-2z" fill="#ecf0f1" data-original="#ecf0f1"></path></g></g></g></svg>